<?xml version="1.0" encoding="utf-8"?>
<!-- Generator: Adobe Illustrator 16.0.0, SVG Export Plug-In . SVG Version: 6.00 Build 0)  -->
<!DOCTYPE svg PUBLIC "-//W3C//DTD SVG 1.1//EN" "http://www.w3.org/Graphics/SVG/1.1/DTD/svg11.dtd">
<svg version="1.1" id="Layer_1" xmlns="http://www.w3.org/2000/svg" xmlns:xlink="http://www.w3.org/1999/xlink" x="0px" y="0px"
	 width="1000px" height="175px" viewBox="0 0 1000 175" enable-background="new 0 0 1000 175" xml:space="preserve">
<linearGradient id="SVGID_1_" gradientUnits="userSpaceOnUse" x1="502.0313" y1="54.9097" x2="502.0313" y2="120.6574">
	<stop  offset="0.0085" style="stop-color:#00ACFF"/>
	<stop  offset="0.0322" style="stop-color:#00A7FC"/>
	<stop  offset="0.2216" style="stop-color:#0384E4"/>
	<stop  offset="0.4134" style="stop-color:#0568D1"/>
	<stop  offset="0.6063" style="stop-color:#0755C4"/>
	<stop  offset="0.8009" style="stop-color:#0849BC"/>
	<stop  offset="1" style="stop-color:#0845B9"/>
</linearGradient>
<path fill="url(#SVGID_1_)" d="M296.975,87.894c-4.158-0.712-15.823-0.712-15.823-7.003c0-5.222,5.428-9.379,12.011-9.379
	c9.818,0,12.936,4.038,12.936,5.936h18.596c0-10.325-10.394-21.365-31.532-21.365c-17.325,0-31.532,11.157-31.532,24.808
	c0,14.6,14.9,18.637,23.679,20.416c4.966,1.068,22.407,1.78,22.407,11.632c0,4.749-6.468,9.139-13.629,9.139
	c-13.282,0-14.091-10.444-14.091-10.563h-19.52c0,10.446,10.627,25.877,33.611,25.877c17.904,0,33.149-11.158,33.149-24.453
	C327.236,92.523,307.486,89.912,296.975,87.894z M408.542,58.221h-75.076v16.615h28.529v60.539h18.019V74.835h28.528V58.221z
	 M203.311,58.221l-37.307,77.153h20.329l5.082-10.565h36.383l5.082,10.565h19.982l-35.921-77.153H203.311z M198.922,109.734
	l10.626-24.809l11.203,24.809H198.922z M135.171,56.202c-21.946,0-39.618,18.278-39.618,40.712
	c0,22.436,17.672,40.597,39.618,40.597c21.83,0,39.501-18.161,39.501-40.597C174.672,74.479,157,56.202,135.171,56.202z
	 M135.171,119.703c-12.36,0-22.293-10.207-22.293-22.789c0-12.582,9.933-22.908,22.293-22.908c12.243,0,22.176,10.327,22.176,22.908
	C157.347,109.496,147.414,119.703,135.171,119.703z M63.45,73.886c7.508,0,13.167,3.088,18.249,7.833l13.63-9.019
	C88.167,62.609,76.5,56.083,63.45,56.083c-21.83,0-39.501,18.279-39.501,40.713c0,22.434,17.672,40.596,39.501,40.596
	c13.051,0,24.717-6.411,31.879-16.5l-13.63-9.021c-6.006,5.224-10.741,7.717-18.249,7.717c-12.244,0-22.177-10.208-22.177-22.791
	C41.273,84.213,51.206,73.886,63.45,73.886z M749.476,88.606c0-16.855-11.551-30.386-26.911-30.386c-8.896,0-36.499,0-36.499,0
	v77.153h18.364v-19.23h13.167l12.36,19.23h22.638l-16.516-23.267C744.049,107.717,749.476,99.764,749.476,88.606z M719.677,99.17
	H704.43V77.21h15.362c6.122,0,11.088,5.106,11.088,11.396C730.88,95.016,725.798,99.17,719.677,99.17z M868.662,104.393h22.753
	v8.071c-4.042,4.272-9.702,7.005-16.055,7.005c-12.243,0-22.293-10.209-22.293-22.791c0-12.583,10.05-22.907,22.293-22.907
	c7.508,0,12.59,2.49,17.21,6.883l13.746-9.022c-7.277-10.088-17.905-15.669-30.956-15.669c-21.829,0-39.617,18.281-39.617,40.715
	c0,22.433,17.788,40.595,39.617,40.595c13.051,0,24.601-6.409,31.765-16.381h0.115V89.557h-38.578V104.393z M949.853,87.894
	c-4.159-0.712-15.823-0.712-15.823-7.003c0-5.222,5.429-9.379,12.011-9.379c9.818,0,12.938,4.038,12.938,5.936h18.596
	c0-10.325-10.395-21.365-31.533-21.365c-17.324,0-31.531,11.157-31.531,24.808c0,14.6,14.899,18.637,23.678,20.416
	c4.966,1.068,22.408,1.78,22.408,11.632c0,4.749-6.469,9.139-13.63,9.139c-13.283,0-14.092-10.444-14.092-10.563h-19.52
	c0,10.446,10.626,25.877,33.611,25.877c17.902,0,33.149-11.158,33.149-24.453C980.114,92.523,960.363,89.912,949.853,87.894z
	 M810.801,96.084c0,12.107-8.314,22.197-19.749,22.197c-11.551,0-19.867-10.09-19.867-22.197V58.221H752.82v37.863
	c0,24.808,16.863,41.308,38.231,41.308c21.252,0,38.115-16.5,38.115-41.308V58.221h-18.366V96.084z M503.244,58.221h-18.02v77.153
	h65.027v-18.519h-47.008V58.221z M640.563,58.221H604.99v77.153h35.573c20.791,0,37.539-17.331,37.539-38.696
	C678.103,75.431,663.551,58.221,640.563,58.221z M642.296,116.855h-19.288V76.736c0,0,14.438,0,19.288,0
	c9.471,0,17.79,8.426,17.79,19.941C660.086,108.191,651.652,116.498,642.296,116.855z M431.524,58.221l-37.307,77.153h20.329
	l5.082-10.565h36.384l5.082,10.565h19.982l-35.921-77.153H431.524z M427.135,109.734l10.626-24.809l11.204,24.809H427.135z"/>
</svg>
