<?xml version="1.0" encoding="utf-8"?>
<!-- Generator: Adobe Illustrator 16.0.0, SVG Export Plug-In . SVG Version: 6.00 Build 0)  -->
<!DOCTYPE svg PUBLIC "-//W3C//DTD SVG 1.1//EN" "http://www.w3.org/Graphics/SVG/1.1/DTD/svg11.dtd">
<svg version="1.1" id="Layer_1" xmlns="http://www.w3.org/2000/svg" xmlns:xlink="http://www.w3.org/1999/xlink" x="0px" y="0px"
	 width="1000px" height="1000px" viewBox="0 0 1000 1000" enable-background="new 0 0 1000 1000" xml:space="preserve">
<radialGradient id="SVGID_1_" cx="279.4087" cy="207.4888" r="791.1888" gradientUnits="userSpaceOnUse">
	<stop  offset="0" style="stop-color:#00F8F5"/>
	<stop  offset="0.1297" style="stop-color:#00F1F0"/>
	<stop  offset="0.3243" style="stop-color:#00DCE2"/>
	<stop  offset="0.4778" style="stop-color:#00C7D4"/>
	<stop  offset="0.6274" style="stop-color:#06BFD2"/>
	<stop  offset="0.862" style="stop-color:#17A8CD"/>
	<stop  offset="1" style="stop-color:#2498C9"/>
</radialGradient>
<path fill="url(#SVGID_1_)" d="M912.906,406.738c-39.098,23.808-87.125,20.408-122.031-4.823
	C726.816,268.832,590.698,176.98,433.123,176.98c-142.993,0-268.229,75.704-338.06,189.157c-3.23,9.689-6.255,19.48-8.869,29.437
	C153.946,273.8,283.882,191.366,433.123,191.366c157.576,0,293.694,91.851,357.752,224.935
	c34.906,25.231,82.934,28.631,122.031,4.824c36.306-22.113,55.276-61.839,52.679-101.507
	C963.322,354.267,944.811,387.305,912.906,406.738z"/>
<linearGradient id="SVGID_2_" gradientUnits="userSpaceOnUse" x1="94.1602" y1="225.1514" x2="965.8193" y2="225.1514">
	<stop  offset="0" style="stop-color:#2E3192"/>
	<stop  offset="0.5025" style="stop-color:#2498C9"/>
	<stop  offset="1" style="stop-color:#A2FFFF"/>
</linearGradient>
<path fill="url(#SVGID_2_)" d="M949.741,255.171C862.906,112.586,711.49,27.458,544.703,27.458
	c-219.821,0-396.279,135.372-449.641,338.68c2.839-5.095-3.047,4.955,0,0C164.894,252.685,290.13,176.98,433.123,176.98
	c157.576,0,293.694,91.851,357.752,224.935c34.906,25.231,82.934,28.631,122.031,4.823c31.904-19.434,50.416-52.472,52.679-87.121
	C967.008,297.772,961.993,275.289,949.741,255.171z"/>
<radialGradient id="SVGID_3_" cx="592.6973" cy="913.2822" r="355.9004" gradientUnits="userSpaceOnUse">
	<stop  offset="0" style="stop-color:#E96500"/>
	<stop  offset="0.3668" style="stop-color:#D34700"/>
	<stop  offset="0.9704" style="stop-color:#A90E00"/>
</radialGradient>
<path fill="url(#SVGID_3_)" d="M587.779,958.261c0,0-3.538,0.301-10.17,0.862c-3.124,0.319-7.759,0.582-13.188,0.872
	c-5.464,0.364-11.472,0.505-18.127,0.579c-3.343,0.094-6.866,0.094-10.561-0.009c-3.891-0.082-7.97-0.169-12.218-0.253
	c-3.735-0.234-7.629-0.469-11.664-0.721c-2.02-0.121-4.074-0.253-6.164-0.374c-2.115-0.142-4.606-0.442-6.949-0.667
	c-4.768-0.496-9.684-1.002-14.746-1.526c-4.875-0.73-9.896-1.479-15.047-2.247c-5.146-0.693-10.372-1.779-15.724-2.855
	c-5.354-1.068-10.829-2.1-16.344-3.57c-22.16-5.262-527.611-144.477-215.831-591.069c16.586-18.519,26.07-29.1,26.07-29.1
	S77.348,526.206,208.37,738.727c14.58,22.852,31.82,43.813,50.838,62.189c19.159,18.245,40.054,33.858,61.529,46.661
	c21.476,12.813,43.541,22.813,65.093,30.251c21.56,7.455,42.591,12.352,62.169,15.426c4.866,0.926,9.705,1.422,14.411,1.994
	c4.706,0.57,9.286,1.179,13.805,1.414c4.491,0.318,8.863,0.638,13.12,0.946c4.108,0.103,8.098,0.206,11.96,0.311
	c1.976,0.035,3.728,0.148,5.788,0.13c2.098-0.037,4.153-0.066,6.178-0.104c4.041-0.065,7.942-0.121,11.684-0.187
	c3.235-0.189,6.34-0.385,9.31-0.563c3.171-0.142,6.186-0.385,9.039-0.693c5.751-0.514,10.816-1.01,14.951-1.629
	c4.183-0.544,7.727-0.984,11.196-1.604c6.57-1.065,10.078-1.638,10.078-1.638c18.312-2.987,35.577,9.433,38.564,27.741
	c2.982,18.311-9.437,35.582-27.746,38.57C589.509,958.074,588.604,958.187,587.779,958.261z"/>
<radialGradient id="SVGID_4_" cx="234.644" cy="683.165" r="525.76" gradientUnits="userSpaceOnUse">
	<stop  offset="0" style="stop-color:#00C7D4"/>
	<stop  offset="0.2971" style="stop-color:#06C4DB"/>
	<stop  offset="0.7429" style="stop-color:#17BAF0"/>
	<stop  offset="1" style="stop-color:#24B3FF"/>
</radialGradient>
<path fill="url(#SVGID_4_)" d="M587.779,970.162c0,0-3.538,0.299-10.17,0.86c-3.124,0.319-7.759,0.58-13.188,0.87
	c-5.464,0.366-11.472,0.506-18.127,0.582c-3.343,0.093-6.866,0.093-10.561-0.01c-3.891-0.084-7.97-0.169-12.218-0.253
	c-3.735-0.234-7.629-0.468-11.664-0.723c-2.02-0.121-4.074-0.251-6.164-0.372c-2.115-0.143-4.606-0.44-6.949-0.665
	c-4.768-0.498-9.684-1.004-14.746-1.526c-4.875-0.73-9.896-1.481-15.047-2.249c-5.146-0.691-10.372-1.78-15.724-2.856
	c-5.354-1.067-10.829-2.099-16.344-3.567c-22.16-5.264-527.611-144.479-215.831-591.071c16.586-18.52,48.608-37.625,48.608-37.625
	S71.143,536.102,208.37,750.625c14.58,22.854,31.82,43.815,50.838,62.19c19.159,18.243,40.054,33.856,61.529,46.659
	c21.476,12.813,43.541,22.816,65.093,30.253c21.56,7.455,42.591,12.354,62.169,15.424c4.866,0.928,9.705,1.426,14.411,1.996
	c4.706,0.572,9.286,1.181,13.805,1.413c4.491,0.321,8.863,0.639,13.12,0.947c4.108,0.104,8.098,0.205,11.96,0.309
	c1.976,0.039,3.728,0.15,5.788,0.131c2.098-0.036,4.153-0.065,6.178-0.103c4.041-0.063,7.942-0.121,11.684-0.187
	c3.235-0.188,6.34-0.383,9.31-0.563c3.171-0.14,6.186-0.383,9.039-0.693c5.751-0.515,10.816-1.012,14.951-1.63
	c4.183-0.543,7.727-0.983,11.196-1.601c6.57-1.067,10.078-1.64,10.078-1.64c18.312-2.987,35.577,9.432,38.564,27.743
	c2.982,18.309-9.437,35.58-27.746,38.568C589.509,969.973,588.604,970.086,587.779,970.162z"/>
<linearGradient id="SVGID_5_" gradientUnits="userSpaceOnUse" x1="70.9497" y1="542.7637" x2="790.875" y2="542.7637">
	<stop  offset="0" style="stop-color:#FF9200"/>
	<stop  offset="0.4591" style="stop-color:#D24C00"/>
	<stop  offset="0.7994" style="stop-color:#B41F00"/>
	<stop  offset="0.9704" style="stop-color:#A90E00"/>
</linearGradient>
<path fill="url(#SVGID_5_)" d="M433.123,187.508c-149.24,0-308.805,97.812-346.929,208.066c0,0-98.551,341.467,205.506,502.445
	c0,0-136.668-124.41-147.33-289.474c0.027-6.273-0.174-13.862-0.652-23.013c3.78-71.056,17.589-102.311,17.589-102.311
	C346.142,88.406,709.953,322.306,759.011,380.73c6.528,7.774,12.69,15.852,18.541,24.177c4.167,4.183,8.62,7.994,13.323,11.394
	C726.816,283.217,590.698,187.508,433.123,187.508z"/>
<linearGradient id="SVGID_6_" gradientUnits="userSpaceOnUse" x1="695" y1="875.8135" x2="695" y2="944.7303">
	<stop  offset="0.1404" style="stop-color:#FF7A00"/>
	<stop  offset="0.2709" style="stop-color:#F97200"/>
	<stop  offset="0.472" style="stop-color:#E85D00"/>
	<stop  offset="0.7183" style="stop-color:#CC3900"/>
	<stop  offset="0.9704" style="stop-color:#A90E00"/>
</linearGradient>
<path fill="url(#SVGID_6_)" d="M728.155,910.802c0,18.309-14.845,33.154-33.156,33.154c-18.308,0-33.154-14.846-33.154-33.154
	c0-18.311,14.847-33.157,33.154-33.157C713.311,877.645,728.155,892.491,728.155,910.802z"/>
<linearGradient id="SVGID_7_" gradientUnits="userSpaceOnUse" x1="792.1758" y1="842.0547" x2="792.1758" y2="905.3646">
	<stop  offset="0.3772" style="stop-color:#FF7A00"/>
	<stop  offset="0.5614" style="stop-color:#E75C00"/>
	<stop  offset="0.961" style="stop-color:#AB1000"/>
	<stop  offset="0.9704" style="stop-color:#A90E00"/>
</linearGradient>
<path fill="url(#SVGID_7_)" d="M818.208,876.735c0,14.383-11.651,26.033-26.032,26.033c-14.382,0-26.033-11.65-26.033-26.033
	c0-14.381,11.651-26.031,26.033-26.031C806.557,850.704,818.208,862.354,818.208,876.735z"/>
<linearGradient id="SVGID_8_" gradientUnits="userSpaceOnUse" x1="845.3125" y1="789.1055" x2="845.3125" y2="836.1815">
	<stop  offset="0.2618" style="stop-color:#FF7A00"/>
	<stop  offset="0.6066" style="stop-color:#CA3700"/>
	<stop  offset="0.8101" style="stop-color:#A90E00"/>
</linearGradient>
<path fill="url(#SVGID_8_)" d="M865.112,815.083c0,10.938-8.859,19.798-19.799,19.798s-19.801-8.859-19.801-19.798
	c0-10.94,8.861-19.801,19.801-19.801S865.112,804.143,865.112,815.083z"/>
</svg>
