<?xml version="1.0" encoding="utf-8"?>
<!-- Generator: Adobe Illustrator 16.0.0, SVG Export Plug-In . SVG Version: 6.00 Build 0)  -->
<!DOCTYPE svg PUBLIC "-//W3C//DTD SVG 1.1//EN" "http://www.w3.org/Graphics/SVG/1.1/DTD/svg11.dtd">
<svg version="1.1" id="Layer_1" xmlns="http://www.w3.org/2000/svg" xmlns:xlink="http://www.w3.org/1999/xlink" x="0px" y="0px"
	 width="1000px" height="350px" viewBox="0 0 1000 350" enable-background="new 0 0 1000 350" xml:space="preserve">
<radialGradient id="SVGID_1_" cx="78.522" cy="92.792" r="233.2041" gradientUnits="userSpaceOnUse">
	<stop  offset="0" style="stop-color:#00F8F5"/>
	<stop  offset="0.1297" style="stop-color:#00F1F0"/>
	<stop  offset="0.3243" style="stop-color:#00DCE2"/>
	<stop  offset="0.4778" style="stop-color:#00C7D4"/>
	<stop  offset="0.6274" style="stop-color:#06BFD2"/>
	<stop  offset="0.862" style="stop-color:#17A8CD"/>
	<stop  offset="1" style="stop-color:#2498C9"/>
</radialGradient>
<path fill="url(#SVGID_1_)" d="M265.247,151.521c-11.524,7.018-25.681,6.015-35.969-1.422c-18.881-39.227-59.002-66.3-105.448-66.3
	c-42.147,0-79.061,22.314-99.644,55.754c-0.953,2.856-1.844,5.742-2.614,8.677C41.542,112.337,79.84,88.04,123.829,88.04
	c46.446,0,86.567,27.073,105.448,66.3c10.289,7.438,24.445,8.439,35.969,1.422c10.702-6.518,16.293-18.227,15.527-29.919
	C280.107,136.055,274.65,145.793,265.247,151.521z"/>
<linearGradient id="SVGID_2_" gradientUnits="userSpaceOnUse" x1="23.9194" y1="97.998" x2="280.8428" y2="97.998">
	<stop  offset="0" style="stop-color:#2E3192"/>
	<stop  offset="0.5025" style="stop-color:#2498C9"/>
	<stop  offset="1" style="stop-color:#A2FFFF"/>
</linearGradient>
<path fill="url(#SVGID_2_)" d="M276.104,106.847c-25.595-42.027-70.226-67.119-119.386-67.119
	c-64.792,0-116.804,39.901-132.532,99.827c0.836-1.501-0.898,1.46,0,0C44.769,106.114,81.682,83.8,123.829,83.8
	c46.446,0,86.567,27.073,105.448,66.3c10.289,7.437,24.445,8.439,35.969,1.422c9.404-5.728,14.86-15.466,15.527-25.679
	C281.193,119.403,279.715,112.776,276.104,106.847z"/>
<radialGradient id="SVGID_3_" cx="170.8643" cy="300.8271" r="104.9034" gradientUnits="userSpaceOnUse">
	<stop  offset="0" style="stop-color:#E96500"/>
	<stop  offset="0.3668" style="stop-color:#D34700"/>
	<stop  offset="0.9704" style="stop-color:#A90E00"/>
</radialGradient>
<path fill="url(#SVGID_3_)" d="M169.415,314.084c0,0-1.043,0.089-2.998,0.254c-0.92,0.094-2.287,0.172-3.887,0.257
	c-1.611,0.108-3.382,0.149-5.343,0.172c-0.985,0.027-2.023,0.027-3.113-0.003c-1.147-0.025-2.349-0.05-3.601-0.075
	c-1.102-0.068-2.249-0.138-3.438-0.212c-0.595-0.036-1.201-0.075-1.817-0.11c-0.624-0.042-1.358-0.13-2.048-0.196
	c-1.405-0.146-2.854-0.296-4.346-0.45c-1.437-0.215-2.917-0.437-4.435-0.662c-1.517-0.204-3.058-0.524-4.635-0.843
	c-1.578-0.314-3.191-0.618-4.817-1.052c-6.532-1.551-155.515-42.585-63.617-174.219c4.889-5.458,7.684-8.577,7.684-8.577
	s-50.04,58.367-11.421,121.009c4.297,6.735,9.379,12.914,14.985,18.33c5.646,5.378,11.806,9.979,18.136,13.754
	c6.33,3.776,12.834,6.725,19.186,8.916c6.355,2.197,12.554,3.642,18.325,4.547c1.434,0.273,2.86,0.42,4.248,0.588
	c1.387,0.169,2.737,0.348,4.069,0.417c1.324,0.094,2.613,0.188,3.868,0.279c1.21,0.03,2.387,0.061,3.525,0.091
	c0.583,0.011,1.099,0.044,1.706,0.038c0.618-0.011,1.224-0.019,1.82-0.03c1.191-0.019,2.341-0.035,3.444-0.055
	c0.954-0.056,1.869-0.113,2.744-0.166c0.935-0.041,1.824-0.113,2.664-0.204c1.695-0.151,3.188-0.298,4.407-0.48
	c1.233-0.16,2.278-0.29,3.3-0.472c1.937-0.315,2.971-0.483,2.971-0.483c5.397-0.881,10.486,2.78,11.367,8.177
	c0.879,5.397-2.781,10.487-8.178,11.368C169.924,314.029,169.658,314.063,169.415,314.084z"/>
<radialGradient id="SVGID_4_" cx="65.3271" cy="232.999" r="154.9692" gradientUnits="userSpaceOnUse">
	<stop  offset="0" style="stop-color:#00C7D4"/>
	<stop  offset="0.2971" style="stop-color:#06C4DB"/>
	<stop  offset="0.7429" style="stop-color:#17BAF0"/>
	<stop  offset="1" style="stop-color:#24B3FF"/>
</radialGradient>
<path fill="url(#SVGID_4_)" d="M169.415,317.592c0,0-1.043,0.088-2.998,0.254c-0.92,0.094-2.287,0.171-3.887,0.257
	c-1.611,0.107-3.382,0.148-5.343,0.171c-0.985,0.027-2.023,0.027-3.113-0.003c-1.147-0.024-2.349-0.05-3.601-0.074
	c-1.102-0.069-2.249-0.138-3.438-0.213c-0.595-0.036-1.201-0.074-1.817-0.11c-0.624-0.041-1.358-0.13-2.048-0.196
	c-1.405-0.146-2.854-0.295-4.346-0.449c-1.437-0.216-2.917-0.437-4.435-0.663c-1.517-0.204-3.058-0.524-4.635-0.842
	c-1.578-0.314-3.191-0.618-4.817-1.052c-6.532-1.552-155.515-42.585-63.617-174.219c4.889-5.458,14.327-11.09,14.327-11.09
	s-58.512,60.29-18.064,123.521c4.297,6.736,9.379,12.914,14.985,18.331c5.646,5.377,11.806,9.979,18.136,13.753
	c6.33,3.776,12.834,6.725,19.186,8.917c6.355,2.197,12.554,3.641,18.325,4.547c1.434,0.272,2.86,0.419,4.248,0.588
	c1.387,0.168,2.737,0.348,4.069,0.417c1.324,0.094,2.613,0.188,3.868,0.278c1.21,0.03,2.387,0.061,3.525,0.091
	c0.583,0.012,1.099,0.045,1.706,0.039c0.618-0.011,1.224-0.02,1.82-0.03c1.191-0.02,2.341-0.036,3.444-0.056
	c0.954-0.055,1.869-0.113,2.744-0.165c0.935-0.042,1.824-0.113,2.664-0.204c1.695-0.152,3.188-0.299,4.407-0.48
	c1.233-0.16,2.278-0.29,3.3-0.473c1.937-0.314,2.971-0.482,2.971-0.482c5.397-0.881,10.486,2.779,11.367,8.177
	c0.879,5.396-2.781,10.487-8.178,11.368C169.924,317.536,169.658,317.569,169.415,317.592z"/>
<linearGradient id="SVGID_5_" gradientUnits="userSpaceOnUse" x1="17.0781" y1="191.6152" x2="229.2773" y2="191.6152">
	<stop  offset="0" style="stop-color:#FF9200"/>
	<stop  offset="0.4591" style="stop-color:#D24C00"/>
	<stop  offset="0.7994" style="stop-color:#B41F00"/>
	<stop  offset="0.9704" style="stop-color:#A90E00"/>
</linearGradient>
<path fill="url(#SVGID_5_)" d="M123.829,86.903c-43.989,0-91.021,28.83-102.258,61.328c0,0-29.048,100.648,60.573,148.097
	c0,0-40.282-36.671-43.425-85.323c0.008-1.85-0.051-4.086-0.192-6.783c1.114-20.944,5.184-30.156,5.184-30.156
	c54.48-116.373,161.715-47.431,176.175-30.21c1.924,2.291,3.741,4.672,5.465,7.126c1.229,1.232,2.541,2.356,3.927,3.358
	C210.396,115.113,170.275,86.903,123.829,86.903z"/>
<linearGradient id="SVGID_6_" gradientUnits="userSpaceOnUse" x1="201.0186" y1="289.7822" x2="201.0186" y2="310.0951">
	<stop  offset="0.1404" style="stop-color:#FF7A00"/>
	<stop  offset="0.2709" style="stop-color:#F97200"/>
	<stop  offset="0.472" style="stop-color:#E85D00"/>
	<stop  offset="0.7183" style="stop-color:#CC3900"/>
	<stop  offset="0.9704" style="stop-color:#A90E00"/>
</linearGradient>
<circle fill="url(#SVGID_6_)" cx="201.019" cy="300.095" r="9.772"/>
<linearGradient id="SVGID_7_" gradientUnits="userSpaceOnUse" x1="229.6606" y1="279.832" x2="229.6606" y2="298.4922">
	<stop  offset="0.3772" style="stop-color:#FF7A00"/>
	<stop  offset="0.5614" style="stop-color:#E75C00"/>
	<stop  offset="0.961" style="stop-color:#AB1000"/>
	<stop  offset="0.9704" style="stop-color:#A90E00"/>
</linearGradient>
<circle fill="url(#SVGID_7_)" cx="229.661" cy="290.055" r="7.673"/>
<linearGradient id="SVGID_8_" gradientUnits="userSpaceOnUse" x1="245.3232" y1="264.2256" x2="245.3232" y2="278.1015">
	<stop  offset="0.2618" style="stop-color:#FF7A00"/>
	<stop  offset="0.6066" style="stop-color:#CA3700"/>
	<stop  offset="0.8101" style="stop-color:#A90E00"/>
</linearGradient>
<circle fill="url(#SVGID_8_)" cx="245.323" cy="271.882" r="5.836"/>
<linearGradient id="SVGID_9_" gradientUnits="userSpaceOnUse" x1="537.5967" y1="174.4844" x2="537.5967" y2="235.4876">
	<stop  offset="0.0085" style="stop-color:#00ACFF"/>
	<stop  offset="0.0322" style="stop-color:#00A7FC"/>
	<stop  offset="0.2216" style="stop-color:#0384E4"/>
	<stop  offset="0.4134" style="stop-color:#0568D1"/>
	<stop  offset="0.6063" style="stop-color:#0755C4"/>
	<stop  offset="0.8009" style="stop-color:#0849BC"/>
	<stop  offset="1" style="stop-color:#0845B9"/>
</linearGradient>
<path fill="url(#SVGID_9_)" d="M347.337,205.089c-3.858-0.661-14.681-0.661-14.681-6.498c0-4.845,5.037-8.702,11.145-8.702
	c9.11,0,12.003,3.746,12.003,5.508h17.254c0-9.58-9.644-19.824-29.257-19.824c-16.075,0-29.257,10.352-29.257,23.018
	c0,13.546,13.825,17.292,21.97,18.942c4.607,0.991,20.79,1.652,20.79,10.793c0,4.406-6.001,8.479-12.646,8.479
	c-12.323,0-13.074-9.69-13.074-9.801h-18.111c0,9.692,9.86,24.01,31.186,24.01c16.612,0,30.757-10.353,30.757-22.688
	C375.415,209.385,357.09,206.961,347.337,205.089z M450.854,177.557h-69.658v15.416h26.47v56.17h16.718v-56.17h26.47V177.557z
	 M260.432,177.557l-34.615,71.586h18.862l4.715-9.803h33.758l4.715,9.803h18.54l-33.329-71.586H260.432z M256.36,225.354
	l9.859-23.019l10.395,23.019H256.36z M197.209,175.684c-20.362,0-36.759,16.959-36.759,37.774c0,20.816,16.396,37.667,36.759,37.667
	c20.254,0,36.651-16.851,36.651-37.667C233.86,192.643,217.463,175.684,197.209,175.684z M197.209,234.603
	c-11.468,0-20.684-9.471-20.684-21.145s9.216-21.255,20.684-21.255c11.36,0,20.576,9.581,20.576,21.255
	S208.569,234.603,197.209,234.603z M130.663,192.092c6.966,0,12.217,2.865,16.932,7.269l12.646-8.368
	c-6.645-9.363-17.469-15.419-29.579-15.419c-20.254,0-36.651,16.96-36.651,37.776c0,20.814,16.396,37.666,36.651,37.666
	c12.109,0,22.934-5.948,29.579-15.31l-12.646-8.37c-5.572,4.847-9.966,7.16-16.932,7.16c-11.36,0-20.576-9.472-20.576-21.146
	S119.303,192.092,130.663,192.092z M767.186,205.75c0-15.639-10.717-28.193-24.97-28.193c-8.253,0-33.865,0-33.865,0v71.586h17.04
	V231.3h12.217l11.468,17.843h21.004l-15.324-21.588C762.149,223.481,767.186,216.103,767.186,205.75z M739.537,215.552h-14.146
	v-20.376h14.253c5.68,0,10.288,4.737,10.288,10.574C749.932,211.696,745.217,215.552,739.537,215.552z M877.771,220.396h21.111
	v7.489c-3.75,3.965-9.002,6.499-14.896,6.499c-11.359,0-20.684-9.472-20.684-21.146s9.324-21.254,20.684-21.254
	c6.967,0,11.682,2.311,15.968,6.387L912.708,190c-6.752-9.36-16.612-14.538-28.722-14.538c-20.254,0-36.758,16.962-36.758,37.776
	s16.504,37.666,36.758,37.666c12.109,0,22.826-5.947,29.472-15.199h0.107v-29.074h-35.794V220.396z M953.103,205.089
	c-3.858-0.661-14.681-0.661-14.681-6.498c0-4.845,5.036-8.702,11.145-8.702c9.109,0,12.003,3.746,12.003,5.508h17.254
	c0-9.58-9.645-19.824-29.257-19.824c-16.075,0-29.257,10.352-29.257,23.018c0,13.546,13.825,17.292,21.97,18.942
	c4.607,0.991,20.79,1.652,20.79,10.793c0,4.406-6.001,8.479-12.646,8.479c-12.324,0-13.074-9.69-13.074-9.801h-18.111
	c0,9.692,9.859,24.01,31.186,24.01c16.611,0,30.757-10.353,30.757-22.688C981.181,209.385,962.855,206.961,953.103,205.089z
	 M824.086,212.688c0,11.234-7.716,20.596-18.325,20.596c-10.716,0-18.433-9.361-18.433-20.596v-35.131h-17.039v35.131
	c0,23.018,15.646,38.327,35.472,38.327c19.72,0,35.365-15.31,35.365-38.327v-35.131h-17.04V212.688z M538.722,177.557h-16.719
	v71.586h60.335v-17.182h-43.616V177.557z M666.133,177.557h-33.007v71.586h33.007c19.291,0,34.829-16.08,34.829-35.904
	C700.962,193.525,687.46,177.557,666.133,177.557z M667.74,231.961h-17.896v-37.225c0,0,13.396,0,17.896,0
	c8.787,0,16.505,7.818,16.505,18.502S676.422,231.629,667.74,231.961z M472.177,177.557l-34.615,71.586h18.862l4.715-9.803h33.758
	l4.715,9.803h18.541l-33.329-71.586H472.177z M468.105,225.354l9.86-23.019l10.395,23.019H468.105z"/>
</svg>
